<?xml version="1.0" encoding="UTF-8"?>
<svg id="Camada_2" data-name="Camada 2" xmlns="http://www.w3.org/2000/svg" viewBox="0 0 2125.42 269.34">
  <defs>
    <style>
      .cls-1 {
        opacity: .6;
      }

      .cls-1, .cls-2 {
        fill: #fff;
      }
    </style>
  </defs>
  <g id="Camada_2-2" data-name="Camada 2">
    <g>
      <path class="cls-2" d="M369.18,208.5c-10.47-5.97-18.95-14.81-25.44-26.54-6.49-11.72-9.74-25.65-9.74-41.78s3.24-30,9.74-41.62c6.49-11.62,14.97-20.42,25.44-26.38,10.47-5.97,21.57-8.95,33.3-8.95s21.52,2.31,30,6.91c8.48,4.61,14.81,11.1,19,19.47l3.45-23.24h33.92v147.63h-35.18l-2.51-22.62c-4.19,8.17-10.52,14.56-19,19.16-8.48,4.6-18.38,6.91-29.68,6.91s-22.83-2.98-33.3-8.95ZM439.38,171.44c7.43-7.43,11.15-17.85,11.15-31.25,0-8.58-1.83-16.07-5.5-22.46-3.67-6.38-8.38-11.25-14.14-14.61-5.76-3.35-11.78-5.03-18.06-5.03-11.31,0-20.73,3.88-28.27,11.62-7.54,7.75-11.31,17.9-11.31,30.47s3.77,23.04,11.31,30.78c7.54,7.75,16.96,11.62,28.27,11.62,10.26,0,19.11-3.72,26.54-11.15Z"/>
      <path class="cls-2" d="M583.87,210.7c-8.06-4.5-14.5-10.84-19.32-19v77.64h-39.58V66.37h35.18l3.45,24.19c4.6-8.79,11.04-15.55,19.32-20.26,8.27-4.71,17.85-7.07,28.74-7.07,11.72,0,22.77,2.98,33.14,8.95,10.37,5.97,18.74,14.76,25.13,26.38,6.39,11.62,9.58,25.5,9.58,41.62s-3.19,30.05-9.58,41.78c-6.39,11.73-14.76,20.57-25.13,26.54-10.36,5.97-21.41,8.95-33.14,8.95-10.47,0-19.74-2.25-27.8-6.75ZM629.41,171.12c7.22-7.64,10.84-17.95,10.84-30.94s-3.66-22.72-10.99-30.47c-7.33-7.74-16.55-11.62-27.64-11.62-6.28,0-12.25,1.62-17.9,4.87-5.65,3.25-10.32,8.06-13.98,14.45-3.67,6.39-5.5,13.98-5.5,22.77,0,13.61,3.66,24.08,10.99,31.41,7.33,7.33,16.12,10.99,26.38,10.99,11.31,0,20.57-3.82,27.8-11.47Z"/>
      <path class="cls-2" d="M762.58,210.7c-8.06-4.5-14.5-10.84-19.32-19v77.64h-39.58V66.37h35.18l3.45,24.19c4.6-8.79,11.04-15.55,19.32-20.26,8.27-4.71,17.85-7.07,28.74-7.07,11.72,0,22.77,2.98,33.14,8.95,10.37,5.97,18.74,14.76,25.13,26.38,6.39,11.62,9.58,25.5,9.58,41.62s-3.19,30.05-9.58,41.78c-6.39,11.73-14.76,20.57-25.13,26.54-10.36,5.97-21.41,8.95-33.14,8.95-10.47,0-19.74-2.25-27.8-6.75ZM808.13,171.12c7.22-7.64,10.84-17.95,10.84-30.94s-3.66-22.72-10.99-30.47c-7.33-7.74-16.55-11.62-27.64-11.62-6.28,0-12.25,1.62-17.9,4.87-5.65,3.25-10.32,8.06-13.98,14.45-3.67,6.39-5.5,13.98-5.5,22.77,0,13.61,3.66,24.08,10.99,31.41,7.33,7.33,16.12,10.99,26.38,10.99,11.31,0,20.57-3.82,27.8-11.47Z"/>
      <path class="cls-2" d="M894.19,81.14c11.2-11.94,27.17-17.9,47.9-17.9,12.77,0,23.29,2.83,31.57,8.48,8.27,5.65,14.18,11.73,17.75,18.22h.63c3.56-6.49,9.53-12.56,17.9-18.22,8.37-5.65,18.95-8.48,31.72-8.48,20.73,0,36.7,5.97,47.9,17.9,11.2,11.94,16.8,28.27,16.8,49v83.87h-39.89v-80.72c0-11.1-2.31-19.73-6.91-25.91-4.61-6.17-11.41-9.27-20.42-9.27s-15.81,3.09-20.42,9.27c-4.61,6.18-6.91,14.82-6.91,25.91v80.72h-39.89v-80.72c0-11.1-2.31-19.73-6.91-25.91-4.61-6.17-11.42-9.27-20.42-9.27s-15.81,3.09-20.42,9.27c-4.61,6.18-6.91,14.82-6.91,25.91v80.72h-39.89v-83.87c0-20.73,5.6-37.06,16.8-49Z"/>
      <path class="cls-2" d="M1160.7,208.5c-10.47-5.97-18.95-14.81-25.44-26.54-6.49-11.72-9.74-25.65-9.74-41.78s3.24-30,9.74-41.62c6.49-11.62,14.97-20.42,25.44-26.38,10.47-5.97,21.57-8.95,33.3-8.95s21.52,2.31,30,6.91c8.48,4.61,14.81,11.1,19,19.47l3.45-23.24h33.92v147.63h-35.18l-2.51-22.62c-4.19,8.17-10.52,14.56-19,19.16-8.48,4.6-18.38,6.91-29.68,6.91s-22.83-2.98-33.3-8.95ZM1230.9,171.44c7.43-7.43,11.15-17.85,11.15-31.25,0-8.58-1.83-16.07-5.5-22.46-3.67-6.38-8.38-11.25-14.14-14.61-5.76-3.35-11.78-5.03-18.06-5.03-11.31,0-20.73,3.88-28.27,11.62-7.54,7.75-11.31,17.9-11.31,30.47s3.77,23.04,11.31,30.78c7.54,7.75,16.96,11.62,28.27,11.62,10.26,0,19.11-3.72,26.54-11.15Z"/>
      <path class="cls-2" d="M1372.4,160.29l-28.27,53.71h-48.06l49-76.33-49-71.3h48.06l28.27,50.26,27.96-50.26h48.37l-49,71.3,49,76.33h-48.37l-27.96-53.71Z"/>
      <path class="cls-2" d="M54.7,36.77v30.23h118.14c16.21,0,29.34,13.14,29.34,29.34v118.14h30.23c16.21,0,29.34-13.14,29.34-29.34V36.77c0-16.21-13.14-29.34-29.34-29.34H84.05c-16.21,0-29.34,13.14-29.34,29.34Z"/>
      <path class="cls-1" d="M99.34,209.01c-7.3,7.3-19.14,7.3-26.44,0l-12.72-12.72c-7.3-7.3-7.3-19.14,0-26.44l59.35-59.35H29.34c-16.21,0-29.34,13.14-29.34,29.34v100c0,16.21,13.14,29.34,29.34,29.34h100c16.21,0,29.34-13.14,29.34-29.34v-90.19l-59.35,59.35Z"/>
      <path class="cls-2" d="M60.18,169.85l59.35-59.35H54.7v72.24l.02.02c.08-4.68,1.89-9.34,5.46-12.91Z"/>
      <path class="cls-2" d="M158.69,149.66l-59.35,59.35c-3.64,3.64-8.41,5.47-13.19,5.47h0s72.53,0,72.53,0v-64.82Z"/>
      <g>
        <path class="cls-2" d="M1627.39,33.92c5.71,9.54,8.56,20.02,8.56,31.43s-2.9,21.63-8.71,31.27c-5.81,9.65-13.69,17.27-23.65,22.87-9.96,5.6-21.06,8.4-33.3,8.4h-54.46v86.82h-29.25V3.11h83.71c12.24,0,23.39,2.75,33.45,8.25,10.06,5.5,17.94,13.02,23.65,22.56ZM1595.65,90.71c6.95-6.95,10.42-15.4,10.42-25.36s-3.37-18.36-10.11-25.21c-6.74-6.85-17.06-10.27-30.96-10.27h-49.17v71.26h48.23c14.11,0,24.63-3.47,31.58-10.42Z"/>
        <path class="cls-2" d="M1785.62,69.08v145.63h-25.21l-2.49-22.4c-5.39,8.09-12.6,14.37-21.63,18.83-9.02,4.46-18.72,6.69-29.09,6.69-12.65,0-24.32-3.01-35.01-9.02-10.68-6.02-19.29-14.78-25.83-26.29-6.53-11.51-9.8-25.05-9.8-40.61s3.27-29.09,9.8-40.61c6.53-11.51,15.14-20.28,25.83-26.29,10.68-6.02,22.35-9.02,35.01-9.02,10.37,0,20.07,2.23,29.09,6.69,9.02,4.46,16.23,10.74,21.63,18.83l2.49-22.4h25.21ZM1751.55,168.19c4.25-7.57,6.38-16.34,6.38-26.29s-2.13-18.72-6.38-26.29c-4.25-7.57-9.91-13.38-16.96-17.43-7.05-4.04-14.63-6.07-22.72-6.07s-15.97,1.97-23.03,5.91c-7.05,3.94-12.76,9.7-17.11,17.27-4.36,7.57-6.53,16.44-6.53,26.61s2.18,19.03,6.53,26.61c4.36,7.57,10.06,13.33,17.11,17.27,7.05,3.94,14.73,5.91,23.03,5.91s15.66-2.02,22.72-6.07c7.05-4.05,12.71-9.85,16.96-17.43Z"/>
        <path class="cls-2" d="M1953.65,69.08v145.63h-25.21l-2.49-22.4c-5.39,8.09-12.6,14.37-21.63,18.83-9.02,4.46-18.72,6.69-29.09,6.69-12.65,0-24.32-3.01-35.01-9.02-10.68-6.02-19.29-14.78-25.83-26.29-6.53-11.51-9.8-25.05-9.8-40.61s3.27-29.09,9.8-40.61c6.53-11.51,15.14-20.28,25.83-26.29,10.68-6.02,22.35-9.02,35.01-9.02,10.37,0,20.07,2.23,29.09,6.69,9.02,4.46,16.23,10.74,21.63,18.83l2.49-22.4h25.21ZM1919.58,168.19c4.25-7.57,6.38-16.34,6.38-26.29s-2.13-18.72-6.38-26.29c-4.25-7.57-9.91-13.38-16.96-17.43-7.05-4.04-14.63-6.07-22.72-6.07s-15.97,1.97-23.03,5.91c-7.05,3.94-12.76,9.7-17.11,17.27-4.36,7.57-6.53,16.44-6.53,26.61s2.18,19.03,6.53,26.61c4.36,7.57,10.06,13.33,17.11,17.27,7.05,3.94,14.73,5.91,23.03,5.91s15.66-2.02,22.72-6.07c7.05-4.05,12.71-9.85,16.96-17.43Z"/>
        <path class="cls-2" d="M1986.01,182.97c-6.02-10.37-9.23-21.26-9.65-32.67h30.18c1.45,13.28,6.38,23.39,14.78,30.34,8.4,6.95,19.34,10.42,32.83,10.42s23.03-2.85,30.5-8.56c7.47-5.7,11.2-13.23,11.2-22.56,0-6.85-2.18-12.6-6.53-17.27-4.36-4.67-9.8-8.45-16.34-11.36-6.53-2.9-15.51-6.33-26.92-10.27-14.52-4.98-26.14-9.59-34.85-13.85-8.71-4.25-16.18-10.32-22.4-18.2-6.22-7.88-9.34-17.94-9.34-30.18s3.01-21.89,9.02-30.81c6.02-8.92,14.37-15.82,25.05-20.69,10.68-4.88,22.77-7.31,36.25-7.31,14.94,0,27.8,3.22,38.59,9.65,10.79,6.43,19.03,14.78,24.74,25.05,5.7,10.27,8.87,21.21,9.49,32.83h-30.18c-.83-12.24-5.13-22.09-12.91-29.56-7.78-7.47-17.69-11.2-29.72-11.2s-22.35,3.01-29.72,9.02c-7.36,6.02-11.05,13.69-11.05,23.03,0,6.64,2.13,12.19,6.38,16.65,4.25,4.46,9.49,8.04,15.71,10.74,6.22,2.7,14.94,5.91,26.14,9.65,14.52,4.77,26.29,9.34,35.32,13.69,9.02,4.36,16.75,10.63,23.18,18.83,6.43,8.19,9.65,18.72,9.65,31.58,0,11.2-3.01,21.21-9.02,30.03-6.02,8.82-14.42,15.66-25.2,20.54-10.79,4.88-23.13,7.31-37.03,7.31-16.18,0-30.08-3.22-41.7-9.65-11.62-6.43-20.43-14.83-26.45-25.2Z"/>
      </g>
    </g>
  </g>
</svg>